PathFileType	4	(X/Y/Z)	C:\Users\WrightLab\Desktop\Jo\P5V21.trc
DataRate	CameraRate	NumFrames	NumMarkers	Units	OrigDataRate	OrigDataStartFrame	OrigNumFrames
100.00	100.00	       12	19	mm	100.00	200	       399
Frame#	Time	Headset_Front			Headset_Back			Headset_Left			Headset_Right			Left_Shoulder			Right_Shoulder			Sternum			C7			Left Elbow			Right Elbow			Left Wrist			Right Wrist			Left ASIS			Right ASIS			S2			Left Knee			Right Knee			Left Ankle			Right Ankle			
		X1	Y1	Z1	X2	Y2	Z2	X3	Y3	Z3	X4	Y4	Z4	X5	Y5	Z5	X6	Y6	Z6	X7	Y7	Z7	X8	Y8	Z8	X9	Y9	Z9	X10	Y10	Z10	X11	Y11	Z11	X12	Y12	Z12	X13	Y13	Z13	X14	Y14	Z14	X15	Y15	Z15	X16	Y16	Z16	X17	Y17	Z17	X18	Y18	Z18	X19	Y19	Z19	

200	1.990	-337.22830	1416.36487	-37.30297	-409.18082	1525.94434	-110.22766				-181.25833	1556.10010	-65.89174	-31.33115	1500.59314	-234.82387				-226.46912	1288.73792	-202.14261	-243.49881	1532.94958	-361.95129	-43.53351	1357.51501	-167.33598	-580.38855	1221.18188	-161.51411	87.85356	1255.28784	-274.82626	-640.92566	1097.83130	55.72009	-55.30827	921.06714	-201.47556	-351.57886	919.59888	-220.62920	-142.92741	997.13135	-463.52237	-50.67468	497.16321	-201.15953	-411.15781	504.29895	-252.51074	-67.02538	85.60966	-315.55975	-441.17514	101.10018	-282.22873	
201	2.000	-341.34024	1415.60693	-33.33558	-411.08957	1524.96973	-109.43698				-185.46700	1556.74902	-63.34199	-34.98930	1500.62292	-234.12408				-229.40057	1288.14868	-202.34106	-247.44647	1532.98840	-361.78076	-47.25690	1357.53174	-166.81779	-583.34277	1220.29236	-162.69168	84.65594	1256.17053	-271.41669	-644.39459	1097.03491	55.62038	-56.81520	920.98328	-201.67470	-354.29581	918.79620	-219.63589	-145.39767	997.08539	-462.88293	-50.49173	497.82159	-200.16539	-412.07678	502.18405	-254.33293	-66.57588	85.79297	-315.43427	-441.05011	99.79683	-281.99902	
202	2.010	-345.42307	1414.97681	-32.63949	-414.99316	1524.85388	-110.00895				-189.94661	1556.44714	-63.89407	-37.97915	1501.00391	-233.95387				-233.25481	1288.45569	-200.50362	-250.77599	1532.56995	-361.08057	-50.17095	1357.30237	-165.30719	-586.73877	1219.31567	-161.85822	81.32192	1256.66394	-269.63101	-647.61774	1096.22461	55.62988	-59.35943	921.11133	-200.00031	-356.30060	918.10913	-218.86394	-148.12546	996.93201	-462.15665	-50.63160	497.71097	-199.80949	-412.50925	500.04279	-257.80988	-66.57065	86.00028	-315.27090	-441.14789	98.31178	-281.94714	
203	2.020	-349.12268	1414.53809	-37.11047	-419.03638	1523.93701	-109.35979				-193.55768	1556.09912	-62.52534	-41.97950	1501.55725	-232.76591				-236.43494	1288.24512	-199.35828	-254.16255	1532.24829	-360.20200	-53.33975	1357.87439	-164.62247	-589.79779	1218.30029	-161.98706	79.76167	1256.71790	-269.67340	-651.02972	1095.29968	55.35017	-61.32708	921.10248	-199.35085	-358.79095	917.41748	-217.98279	-150.38828	996.65851	-461.06485	-51.94350	497.44937	-200.31277	-413.43948	497.55862	-260.46765	-66.90240	85.44347	-315.59018	-441.67734	97.18129	-282.51996	
204	2.030	-353.15070	1413.72607	-36.98736	-422.93546	1523.66760	-109.46275				-198.17827	1556.40491	-61.66379	-45.92395	1501.58289	-232.03131				-239.84399	1287.72742	-199.11557	-258.18036	1531.99377	-360.26013	-57.39934	1357.32593	-163.72545	-593.28516	1217.38538	-161.82452	75.82168	1257.29456	-268.84982	-654.53503	1094.04614	55.77411	-63.69266	921.19464	-198.96529	-362.06854	916.96344	-217.24876	-153.43742	996.59863	-460.63480	-50.84749	498.91156	-198.52646	-414.57001	494.78787	-263.31122	-66.60764	85.79884	-315.42206	-443.33856	98.00743	-283.66486	
205	2.040	-356.84326	1414.23901	-30.46904	-427.01648	1523.51282	-109.22980				-202.16171	1555.51733	-60.64082	-49.87162	1501.13513	-231.56400				-243.23506	1286.80286	-197.92947	-261.72516	1531.73584	-359.43292	-61.15939	1357.34583	-162.16173	-596.54913	1216.49304	-162.73125	73.26289	1257.70154	-269.07974	-658.37744	1093.40808	55.67503	-65.98771	921.11517	-197.96268	-365.25046	916.45691	-215.38399	-156.40565	997.10077	-460.67468	-50.64199	499.48456	-198.34898	-415.86075	493.04492	-265.56219	-66.83175	85.86696	-315.60861	-443.64944	96.02543	-283.88708	
206	2.050	-321.62531	1383.66577	-175.06677	-431.17374	1523.00159	-108.31592				-206.13875	1555.50659	-60.74293	-53.58053	1501.47546	-230.92392				-247.27512	1288.06262	-195.59421	-265.68350	1531.81738	-358.72443	-63.62710	1357.66882	-162.13533	-599.88037	1215.50000	-162.24095	69.55698	1257.96594	-269.04019	-661.91174	1091.91174	56.15803	-67.67614	921.24548	-198.02757	-368.30273	915.85187	-214.61385	-159.08575	996.80804	-459.28964	-50.76469	500.52029	-197.84076	-416.97531	491.62656	-268.03418	-66.87879	85.85278	-315.60623	-443.13486	95.90671	-284.66675	
207	2.060	-326.14075	1383.46411	-174.04097							-210.27831	1555.89465	-58.31281	-57.58873	1501.64246	-229.42592				-250.10826	1286.77332	-197.53198	-269.61258	1531.60925	-357.68152	-67.89854	1358.01367	-160.33641	-603.67810	1213.87256	-160.91986	65.00485	1257.50732	-267.60461	-665.49957	1091.17310	56.74583	-69.93180	920.85767	-198.32317	-371.82010	915.35303	-213.35251	-162.46848	997.23364	-458.83817	-50.90248	500.84625	-197.87686	-418.43588	490.40952	-269.88101	-66.99577	85.96273	-315.64612	-443.15137	95.46273	-284.48767	
208	2.070	-330.54333	1383.22314	-173.99574	-439.44992	1522.80908	-107.11135				-215.30048	1555.80603	-58.81062	-61.86371	1502.02075	-228.03081				-254.57262	1288.05286	-194.29117	-274.04483	1532.11121	-356.90866	-70.86253	1358.00110	-160.26761	-606.69012	1212.31750	-160.18837	60.52440	1257.81128	-266.30664	-668.66064	1089.97375	57.05208	-72.67976	921.41553	-197.57520	-375.51874	914.65350	-212.00002	-165.84920	997.62354	-458.76517	-52.78152	500.84686	-198.25090	-419.96338	489.93280	-271.03830	-67.04510	85.96471	-315.63205	-443.41000	95.26968	-284.25748	
209	2.080	-334.43610	1382.47852	-172.99649	-443.61676	1522.90442	-105.67803				-219.08305	1556.19373	-56.39818	-66.25249	1501.95288	-228.11394				-257.96255	1287.62378	-195.10860	-278.22174	1532.13806	-355.68530	-74.76341	1358.20667	-159.31195	-610.03357	1211.40100	-159.53749	59.00699	1258.60376	-266.97403	-672.30756	1089.12695	56.95140	-74.47684	921.65948	-197.38075	-378.58780	914.56683	-210.49823	-168.65067	998.39984	-457.54123	-53.38028	501.37634	-197.98930	-420.74551	490.10239	-271.22195	-67.17581	86.15298	-315.61209	-443.52536	95.21468	-284.47116	
210	2.090	-339.42081	1382.13037	-172.32652	-447.94006	1522.90918	-104.92060				-223.11026	1556.17529	-56.24881	-70.68328	1502.66260	-226.73523				-261.60892	1287.79065	-194.12161	-282.85474	1532.32544	-355.00003	-78.14580	1358.43225	-157.34439	-614.70392	1211.67651	-159.62891	55.76192	1260.32397	-265.96060	-675.77576	1087.75623	58.11404	-77.31834	922.61774	-197.33415	-382.03552	914.26129	-210.40906	-171.93530	998.88110	-457.73965	-53.43958	501.86038	-197.27992	-421.80164	490.79990	-271.66006	-67.37828	86.68182	-316.21909	-444.01804	94.77248	-284.19388	
211	2.100	-343.33746	1381.40198	-170.73511	-452.27170	1523.00427	-103.90975				-227.59456	1555.77954	-55.11952	-75.46715	1503.06482	-226.52121				-265.68997	1287.83679	-193.71700	-287.21524	1532.41699	-353.72076	-82.96916	1359.49878	-157.29190	-618.34363	1210.71899	-158.21429	50.20012	1261.00806	-266.34262	-678.73022	1086.53101	58.46272	-79.62246	922.94440	-197.43967	-385.67465	914.08276	-208.80168	-174.55931	999.17401	-457.02548	-54.17374	502.38556	-195.99623	-423.47012	490.87375	-271.65298	-67.36243	87.27522	-316.48596	-444.38638	94.51208	-284.19006	
